<svg xmlns="http://www.w3.org/2000/svg" xmlns:xlink="http://www.w3.org/1999/xlink" width="889" height="174" viewBox="0 0 889 174"><defs><path id="a" d="M197.71 275.62a39.34 39.34 0 1 1 0 78.68 39.34 39.34 0 0 1 0-78.68z"/><path id="b" d="M250.33 361c-.48-.07-.96-.21-1.44-.21a2.74 2.74 0 0 1-2.4-1.17c-.37-.5-1.03-.77-1.57-1.11-.3-.2-.66-.3-.96-.5-.64-.42-.82-1.1-.84-1.8-.04-1.2 0-2.38-.02-3.57-.01-1.03-.02-2.06-.58-3-.13-.2-.14-.5-.16-.77-.08-1.2-.11-2.4-.24-3.58-.06-.63-.31-1.24-.41-1.87-.18-1.07-.3-2.15-.43-3.22-.19-1.63-.36-3.26-.52-4.9-.07-.72-.08-1.46-.13-2.2l-.42-5c-.06-.65-.1-1.3-.12-1.94-.05-1.7-.09-3.4-.11-5.11-.05-3.38-.11-6.76-.1-10.13.01-2.46.1-4.92.22-7.38.13-2.38.36-4.77.53-7.15.09-1.18.1-2.36.23-3.53.15-1.4.39-2.79.57-4.18.1-.72.12-1.46.25-2.18.15-.85.42-1.68.56-2.53.18-1.09.28-2.2.44-3.28.17-1.18.38-2.35.57-3.52.03-.21.07-.43.07-.64v-7.4c0-.56-.2-.79-.76-.77l-6.13.23c-1.56.06-3.11.16-4.67.2-2.7.1-5.41.16-8.12.23-1.67.04-3.34.02-5 .11-1.66.09-3.32.27-4.97.4-.55.05-1.1.1-1.66.12l-3.27.12c-.98.05-1.96.13-2.95.19-.36.02-.73.02-1.1.02-4.04.04-8.08.1-12.13.1-1.5 0-3-.14-4.5-.2-1.59-.08-3.18-.12-4.77-.23-1.44-.1-2.87-.29-4.3-.4-.63-.05-1.27.04-1.9-.04-.87-.1-1.7-.4-2.41-.95-.03-.02-.05-.08-.06-.07-.29.05-.58.18-.86.16-.3-.02-.53-.18-.77.2-.28.43-.75.6-1.3.58-1.17-.06-2.33-.09-3.5-.11-.58-.01-1.07-.2-1.4-.7-.07-.1-.2-.21-.3-.22-.7-.03-1.42-.1-2.12-.03-.71.07-1.41.28-2.11.45-.98.25-1.96.34-2.95.09-.07-.02-.14-.02-.21-.02l-5.91-.23c-.8-.02-.98.18-.98.98 0 1.58-.03 3.16.02 4.75.06 1.88.08 3.77.6 5.61.09.3.1.66.02.96-.31 1.23.04 2.43.11 3.63.01.22-.01.44.02.65.02.14.09.36.19.4.97.38.92 1.26.97 2.03.07 1.2.16 2.4-.15 3.6-.12.49 0 1.18.47 1.62.54.51.5 1.2.54 1.85.1 1.63.15 3.26.24 4.89.1 1.84.23 3.67.32 5.51.06 1.49.1 2.97.11 4.46.05 3.07.1 6.14.1 9.2a162.5 162.5 0 0 1-.33 9.93c-.13 2.29-.23 4.58-.45 6.86-.2 2.03-.5 4.06-.82 6.08-.3 1.88-.8 3.73-.94 5.61-.15 2.1-.7 4.1-.99 6.16-.11.86.05 1.75.08 2.63a3.6 3.6 0 0 1-1.53 3.08c-.78.6-1.67 1.07-2.56 1.5-.44.22-1 .23-1.5.3-1.79.22-3.57.16-5.33-.22-.46-.1-.87-.4-1.29-.62-.56-.31-1.1-.66-1.65-.97-.76-.43-1.48-2.15-1.4-3.01.13-1.44.1-2.87-.27-4.3-.38-1.5-.6-3.03-.85-4.55a118 118 0 0 1-.59-3.9c-.08-.65-.1-1.32-.17-1.97l-.61-4.98c-.09-.73-.2-1.45-.25-2.18l-.43-5.66c-.07-1.09-.2-2.17-.2-3.26-.07-3.7-.1-7.4-.14-11.11 0-.75-.1-1.5-.08-2.25.03-.7.15-1.38.27-2.06.13-.79.37-1.56.44-2.35.04-.47-.13-.98-.25-1.45a7.03 7.03 0 0 1-.08-2.91c.06-.42-.03-.87.05-1.29.09-.43.31-.84.45-1.27.11-.34.24-.7.28-1.05.09-.85.02-1.67-.19-2.52a6.29 6.29 0 0 1 .9-4.9c.34-.56.14-1.1.24-1.63.18-.98.26-1.97.33-2.96.03-.5.04-1.03-.11-1.49-.32-.94-.1-1.84.07-2.73.38-2.08.82-4.14 1.23-6.22.04-.19.02-.39.02-.59 0-2.88-.02-5.75 0-8.63.03-1.55-.48-1.53-1.49-1.74-1.09-.22-2.17-.47-3.26-.7-.66-.14-1.32-.25-1.99-.37-1.23-.24-2.47-.5-3.71-.7-2.04-.3-3.9-1.16-5.85-1.78a31 31 0 0 1-3.3-1.21c-1.38-.62-2.7-1.4-4.07-2.02-1.02-.46-1.8-1.2-2.63-1.9-1.39-1.16-1.5-2.73-1.26-4.36.14-.96.2-.96 1.01-2.08-.43-.64-1.14-.8-1.82-.95-.54-.12-1.1-.15-1.63-.23-.85-.13-1.42-.72-1.4-1.55.04-1.25.03-2.51.26-3.73.15-.77.68-1.48 1.05-2.2.17-.33.4-.63.58-.95a3.57 3.57 0 0 1 2.09-1.66c.25-.08.59-.06.83.05 5.3 2.3 10.83 3.95 16.25 5.9 2.69.96 5.32 2.08 8 3.06.95.34 1.98.45 3.08.7l-.52-12.66-4.03-.23-.97-.04c-.98-.08-1.7-.64-1.77-1.61-.1-1.48-.06-2.97-.03-4.45 0-.48-.24-.64-.63-.7-.26-.03-.54 0-.8 0-9.95 0-19.9-.01-29.85 0a2.4 2.4 0 0 1-2.32-2.88c.09-.5-.18-.75-.69-.75-3.25.03-6.5.06-9.76.04-1.15-.01-1.8-.65-2.14-1.83a8.87 8.87 0 0 1-.45-2.84c.02-.64-.36-1.09-.97-1.24-.94-.24-1.9-.38-2.83-.66-1.88-.58-3.74-1.23-5.61-1.84-.3-.1-.6-.24-.9-.31-1.94-.47-3.44-1.83-5.22-2.58-1.21-.5-2.05-1.5-3.2-2.07-.4-.2-.65-.73-.89-1.15a6.8 6.8 0 0 1-.64-1.52 4.5 4.5 0 0 1 .42-3.4c.27-.51.64-.98 1-1.43.36-.46.38-.69-.17-.87-.69-.22-1.42-.3-2.12-.47l-2.48-.6c-.36-.09-.74-.12-1.07-.28a1.82 1.82 0 0 1-1.11-1.58c0-.12-.07-.23-.11-.35v-1.83c.04-.15.1-.3.11-.45a10.88 10.88 0 0 1 2.38-6.1c.27-.34.5-.75.86-1 .8-.55 1.65-1.02 2.48-1.52h.75c.34.12.66.24 1 .34.75.22 1.49.48 2.25.63 1.6.3 3.23.52 4.83.84 1.78.37 3.55.84 5.33 1.21 1.27.27 2.56.4 3.83.67 1.14.25 2.26.61 3.38.92.8.22 1.6.48 2.41.66.73.16 1.49.2 2.21.36 1.28.29 2.53.67 3.81.95 1.64.36 3.3.67 4.95.98 1.42.28 2.84.49 4.24.8 1.4.32 2.77.76 4.16 1.09 1.17.28 2.37.43 3.54.72 1.45.36 2.87.8 4.3 1.2.3.08.62.14.94.19 1.64.27 3.31.43 4.92.83 2.79.7 5.6 1.22 8.45 1.42 2.28.16 4.57.33 6.86.34 27.47.02 54.94.02 82.4 0 4.76 0 9.53-.07 14.29-.1 1.26-.01 2.52-.02 3.78 0 .32.01.71.04.97.22.71.5 1.41 0 2.11.02.46.02.93-.24 1.4-.23 4.1.02 8.2.07 12.29.1 4.91.04 9.83.07 14.72-.55 1.47-.19 2.94-.44 4.4-.7 1.07-.2 2.11-.5 3.17-.7 1.6-.3 3.23-.52 4.82-.85.66-.13 1.26-.5 1.92-.64 1.72-.4 3.47-.7 5.2-1.09 2.07-.47 4.13-1.01 6.2-1.48 1.37-.31 2.76-.54 4.14-.8 1.03-.19 2.07-.33 3.09-.57 1.65-.39 3.29-.86 4.94-1.26 1.04-.24 2.1-.36 3.13-.61 1.2-.3 2.37-.74 3.57-1 1.63-.35 3.3-.56 4.92-.9 2.19-.44 4.36-.97 6.54-1.43 1.08-.23 2.17-.39 3.25-.61.78-.16 1.54-.38 2.31-.58.34-.08.68-.2 1.02-.27.89-.2 1.56.3 2.28.69 1.4.76 2.2 2.05 3.01 3.33.05.07.02.18.05.26l.53 1.26c.1.26.25.5.33.77l.66 2.31v2.27a2.94 2.94 0 0 1-2.39 2.15c-1.52.3-3.04.63-4.56.98-.22.05-.4.26-.6.4.12.17.22.37.38.51.59.52 1.13 1.11 1.2 1.9.08 1.09.1 2.2 0 3.27a2.9 2.9 0 0 1-1.21 2.22c-1.06.72-2.1 1.47-3.18 2.14-.87.53-1.8.96-2.72 1.43-.66.33-1.3.71-2 .97-1.19.46-2.43.78-3.6 1.26-1.9.76-3.87 1.15-5.85 1.54-.87.17-1.51.86-1.48 1.74.04 1.38-.56 2.56-1.15 3.74-.05.1-.17.2-.27.24-.54.16-1.08.4-1.62.41-2.44.05-4.89.03-7.34.02-.57 0-1.14-.05-1.7-.09-.55-.03-.85.3-.8.84.04.27.04.54 0 .8-.07.68-.65 1.27-1.22 1.28l-32.15.43h-.6v.67l.06 4.48c.01.81-.02.84-.82.9l-3.22.25-2.98.22v14.43c.33-.08.63-.13.91-.24l13.12-4.9 13.93-5.2c.17-.06.44-.15.55-.08.6.47 1.28.9 1.73 1.5.45.6.68 1.38 1 2.1.6 1.34.83 2.74.77 4.22-.05 1.31-.73 2.02-2.05 2.17-.84.1-1.67.33-2.5.56-.5.14-.61.61-.2.88.55.36.73.88.84 1.47.22 1.22.3 2.44-.4 3.53-1 1.54-2.58 2.44-4.09 3.39a.91.91 0 0 1-.14.07c-.93.38-1.88.74-2.8 1.14-.37.16-.7.45-1.07.59-1.09.41-2.2.8-3.3 1.16-1.57.52-3.15 1.04-4.75 1.5-1.05.3-2.14.5-3.22.69-.87.15-1.78.16-2.64.37-1.29.33-2.54.77-3.89.86-.27.02-.66.43-.74.73-.13.46-.04.98-.04 1.47-.01 1.5-.04 3-.03 4.51.01 1.68-.15 3.35.13 5.01.4 2.33.84 4.65 1.2 6.98.23 1.43.37 2.86.53 4.3.1.86.13 1.74.25 2.61.18 1.3.47 2.59.6 3.9.23 2.4.38 4.8.55 7.22.13 1.84.27 3.68.31 5.52.07 3.02.08 6.04.07 9.06-.01 2.06-.09 4.13-.16 6.19-.05 1.32-.13 2.64-.22 3.96-.13 1.85-.29 3.7-.43 5.56-.05.64-.09 1.28-.18 1.91-.2 1.53-.48 3.06-.67 4.6-.2 1.69-.4 3.39-.53 5.1-.18 2.27-.8 4.46-1.19 6.7-.12.7-.29 1.4-.32 2.1-.03.84.08 1.68.08 2.51 0 .44-.06.9-.23 1.3-.28.68-.48 1.44-1.3 1.74-.27.1-.52.3-.77.45a7.46 7.46 0 0 1-2.86 1.22c-.73.1-1.44.28-2.16.43h-.97zm-6.36-110.2c-.1-4.92-.22-9.74-.33-14.58-1.15-.07-2.23-.13-3.3-.22-.2-.02-.45-.13-.6-.27-.46-.43-.89-.9-1.31-1.36a1.15 1.15 0 0 1-.29-.55c-.1-.64-.15-1.28-.23-1.93l-.39-3.35-23 .2-.3.66-6 12.79c-.12.26-.19.58-.18.87.02 2.43.06 4.86.1 7.28l.03.45h35.8zm-86.22-21.7v.82l.16 4.59c.03.63-.73 1.47-1.37 1.5-1.53.08-3.06.14-4.58.2l-.68.05-.03.28-.19 13.27c0 .27.11.55.16.82h35.4l.03-.3c.08-2.63.16-5.28.21-7.92 0-.3-.07-.64-.2-.92-1.89-3.98-3.8-7.94-5.68-11.92-.2-.42-.44-.55-.9-.55-5.6.04-11.22.06-16.83.09h-5.5z"/><path id="c" d="M325.45 247.23l45.18-.05c4.9 1.2 8.08 3.94 9.52 8.21 1.44 4.27 2.17 8.02 2.17 11.23l-15.97 3.17c0-3.83-3.59-5.46-10.76-4.87h-12.57l38.28 37.5c2.85 3.65 3.22 9.8 1.11 18.47-2.1 5.5-7.32 8.61-15.62 9.36l-30.73-.05a15.25 15.25 0 0 1-8.5-6.8c-2.06-3.36-3.65-7.5-4.79-12.45l16.65-5.7c.46 4.65 2.34 6.9 5.65 6.73l16.21.05c2.5-.56 2.1-2.34-1.21-5.36l-35.6-34.84 8.77-6.91h-11.2zm88.03-.1c-2.3 21.38-2.61 35.69-.93 42.95 1.7 7.26 4.38 13 8.06 17.22 3.69 4.22 12.05 5.25 25.1 3.07l-.1-62.36 17.68 1.02v79.8l-17.68 1.76V320.5l-3.16 11.11-3.8.83c-11.42.2-20.05-1.41-25.88-4.82-5.82-3.41-10.62-10.34-14.38-20.78-3.77-10.44-5.31-25.5-4.63-45.19l1.02-11.25zm113.84.15c6.16 1.14 9.34 5.23 9.54 12.28l-.1 30.93c-.58 6.34-3.94 9.45-10.08 9.36h-25.02l-5.85-10.48.05 27.63c-1 6.17-3.1 10-6.3 11.5-3.2 1.49-8.3 2.19-15.32 2.09l-.05-16.03c2.9.71 4.2-3.36 3.95-12.23v-32.35l9.5-5.3-14.32-.06 3.6-17.34zm-31.95 17.44l.05 15.69 23.03.05v-15.79zm53.51-17.49h58.63l-4.87 18.37-29.6.1v9.1h32.42l-2.92 16.57-29.94-.1c-.59 8.8-.04 14.61 1.63 17.42 1.67 2.8 4.48 4.23 8.45 4.26h22.25l-2.97 17.3c-17.89.42-28.27-.14-31.14-1.68-2.87-1.55-5.86-4.07-8.96-7.58-3.1-3.5-5.06-8.67-5.87-15.5v-14.22l-10.03.1 2.49-16.71 8.23.1v-9.5l-10.72.05zm69.29.15h52.49c3.7.45 6.23 2.84 7.6 7.16l-.1 24.46c-1.2 5.65-2.92 9.43-5.14 11.35-2.22 1.91-6.2 4.14-11.9 6.67l4.77 7.65a20.28 20.28 0 0 0 15.19 9.7l-1.41 18.8-9.8-1.85c-6.39-1.3-13.12-7.96-20.2-19.98l-3.84-7.3-9.55 4.48-.1 21.78-17.04.1v-16.18l-6.67-14.32 6.58-4.15.1-25.62 8.37-4.63-13.15.05zm18.11 18.17v23.43l18.16-7.2c4.45-1.6 6.67-4.21 6.67-7.85v-8.38z"/><path id="d" d="M719.2 247.38h61.2l-2.14 17.78h-20.6l-.1 6.87h17.15l-3.22 17.25h-14.7l-.1 24.3a27.7 27.7 0 0 1-5.89 14.94c-3.38 4.24-7.95 6.83-13.73 7.77l-4.33-18.32c4.22-1.3 6.25-3.64 6.08-7.02l-.1-21.87h-17.81l2.97-17.1 15 .1v-6.92h-22.7zm103.27-6.53l15 5.65-1.8 5.85h24.1l-2.49 18.02-13.14.05 20.89 55.98-16.17 5.55-21.37-57.24-23.96 56.75-16.36-5.01 23.62-56.27-17.24-.05 1.36-17.78h22.74zm7.74 62.11l9.3 10.24-17.23 17.29-9.35-10.13zm60.87-55.73v8l4.72-8h40.17c4.96 1.37 7.3 8.35 7 20.95v54.86c-.97 4.48-4.76 6.82-11.38 7.01h-46.45c-6.89.3-10.88-2.71-11.98-9.01v-70.1zm0 17.98v46.87H925V265.2z"/></defs><g transform="translate(-56 -188)"><use fill="#f5be00" xlink:href="#a"/></g><g transform="translate(-56 -188)"><use fill="#052d33" xlink:href="#b"/></g><g transform="translate(-56 -188)"><use fill="#052d33" xlink:href="#c"/></g><g transform="translate(-56 -188)"><use fill="#f5be00" xlink:href="#d"/></g></svg>