<svg xmlns="http://www.w3.org/2000/svg" xmlns:xlink="http://www.w3.org/1999/xlink" width="817" height="386" viewBox="0 0 817 386"><defs><path id="a" d="M288.2 542.3c.47.55.8.88 1.06 1.25 4.53 6.23 8.85 12.64 13.64 18.67a244.9 244.9 0 0 0 20.23 22.38c7.77 7.63 16 14.73 24.53 21.5a231.15 231.15 0 0 0 38.29 24.76c14.32 7.32 29.26 13 44.8 17.14.37.1.77.15 1.3.25v-6.8-24.9c0-1.92-.64-2.82-2.44-3.4a36.36 36.36 0 0 1-12.53-6.77c-3.13-2.64-4.5-5.98-2.64-9.89.9-1.88 2.67-3.5 4.38-4.8 3.3-2.51 7.1-4.2 11.02-5.56 2.68-.92 5.33-1.92 8.03-2.73 1.97-.6 4.02-.96 6.03-1.4 2.56-.58 5.12-1.16 7.7-1.69.94-.2 1.92-.26 2.88-.41 3.92-.6 7.85-1.25 11.78-1.8 1.52-.22 3.08-.16 4.61-.35 8.08-1.02 16.2-1.24 24.32-1.2 1.17 0 2.34-.36 3.5-.33 7.02.16 14.04.3 21.05.6 4.73.22 9.46.6 14.16 1.12 3.78.41 7.53 1.16 11.29 1.76 2.8.45 5.61.81 8.39 1.36 2.18.43 4.32 1.07 6.48 1.63 1.76.46 3.51.92 5.25 1.44a88.6 88.6 0 0 1 5.3 1.75c2.08.77 4.17 1.54 6.16 2.5 3.38 1.62 6.62 3.46 8.95 6.54.28.37.74.6 1.21.96v7.2c0 .2 0 .47-.12.58-2.37 2.42-4.75 4.83-7.9 6.26-2.99 1.35-5.95 2.75-8.94 4.08-.78.35-1.13.84-1.13 1.67.02 10.5.02 21.01.03 31.52 0 .27.07.54.12.94.69-.17 1.3-.32 1.92-.49a223.5 223.5 0 0 0 48.12-19.2c13.48-7.26 25.95-16.03 37.83-25.69a288.94 288.94 0 0 0 27.55-25.54 266.93 266.93 0 0 0 20.44-24.62c2.2-2.97 4.2-6.08 6.3-9.12.23-.34.54-.64 1.05-1.25.16 1.1.26 1.84.38 2.58a77.7 77.7 0 0 1 .7 19.94 61.95 61.95 0 0 1-3.83 17.06 53.57 53.57 0 0 1-7.48 13.6c-4.44 5.7-9.8 10.48-15.43 14.95a403.24 403.24 0 0 1-17.13 13.05 258.66 258.66 0 0 1-28.26 17.45c-7.61 4.04-15.33 7.85-23.37 10.91a324.1 324.1 0 0 1-23.28 7.77c-6.37 1.88-12.9 3.22-19.36 4.76-1.65.4-3.33.68-5.01.96-.97.16-1.35.57-1.3 1.61.1 1.98.03 3.97.03 6.18 43.56-6.02 82.71-22.36 118.14-48.6.08 1.42.22 2.6.2 3.8-.1 4.69-.78 9.27-2.11 13.8a41.97 41.97 0 0 1-11.6 18.99 45.11 45.11 0 0 1-14.59 9.33c-6.07 2.38-12.12 4.83-18.28 6.97a243.4 243.4 0 0 1-16.52 5.02c-5.08 1.37-10.26 2.37-15.38 3.6-8.59 2.08-17.3 3.32-26.07 4.16-4.52.43-9.06.76-13.69 1.15v6.25c26.72 1.33 52.47-3.67 78.1-11.48-.26 1.74-.4 3.3-.73 4.8a28.71 28.71 0 0 1-10.64 16.73 35.4 35.4 0 0 1-16.3 7.25c-9.17 1.5-18.4 2.74-27.6 4.08-.4.06-.82.06-1.22.06h-46.99c-.03-.61-.08-1.16-.08-1.7V642.6l.02-41.65c0-2.1-.52-2.6-2.62-2.78-1-.1-1.97-.52-2.97-.61-5.45-.53-10.83-1.64-16.34-1.56-2.29.04-4.58-.45-6.87-.7-.2-.02-.4-.04-.6-.04-5.66-.07-11.3-.17-16.96-.18-3.2 0-6.43-.02-9.63.22-6.3.47-12.59 1.08-18.87 1.72-3.15.32-6.27.82-9.4 1.23-1.3.17-1.83.76-1.86 2.26-.03 2.12 0 4.24 0 6.35v112.08h-1.34c-15.33 0-30.67.08-46-.06-3.76-.03-7.52-.73-11.27-1.24-5.31-.72-10.64-1.4-15.92-2.36-8.78-1.61-16.7-5.02-22.66-12.02a27.33 27.33 0 0 1-6.51-14.58c-.1-.68-.21-1.36-.3-2.05-.01-.1.05-.23.11-.54 25.55 7.8 51.5 12.78 78.53 11.4 0-1.91.03-3.85-.04-5.78 0-.2-.52-.54-.83-.57-3.28-.26-6.58-.36-9.84-.73-6.46-.72-12.95-1.32-19.34-2.45-7.94-1.4-15.83-3.1-23.65-5.03-5.7-1.4-11.29-3.27-16.87-5.1a292.82 292.82 0 0 1-15.02-5.36c-5.1-1.98-10.12-4.15-14.61-7.38-7.09-5.08-12.37-11.56-15.47-19.73a47.33 47.33 0 0 1-3.14-19.35c.02-.45.13-.9.23-1.51 35.49 26.3 74.81 42.64 118.52 48.6v-7.44c-2.33-.47-4.68-.9-7-1.43-3.32-.76-6.62-1.58-9.92-2.41-4.65-1.17-9.33-2.2-13.9-3.57-8.59-2.6-17.01-5.62-25.21-9.27a256.34 256.34 0 0 1-27.56-14.24 267.17 267.17 0 0 1-31.3-21.68c-4.57-3.71-9.05-7.54-13.29-11.62a51.7 51.7 0 0 1-10.73-14.77 58.93 58.93 0 0 1-5.1-15.18c-1.25-6.82-1.77-13.7-.93-20.64l.83-7.14c.05-.39.17-.76.33-1.42zm248.38-8.89c-.37-4.46-2.73-7.23-6.26-9.23-4.38-2.48-9.17-3.4-14.08-4.26-6.02-1.05-12.04-.9-18.07-.97-3.13-.04-6.27.04-9.37.36-2.93.3-5.86.88-8.72 1.58a53.35 53.35 0 0 0-7.6 2.43c-2.7 1.1-5.1 2.8-6.48 5.46-.72 1.38-1 2.99-1.53 4.67-1.7-.93-3.65-1.89-5.5-3a25.62 25.62 0 0 1-7.2-6.14c-1.68-2.18-3.02-4.6-3.16-7.37a13.6 13.6 0 0 1 .88-5.22 14.58 14.58 0 0 1 6.17-7.3 62.86 62.86 0 0 1 7.22-3.7 38.4 38.4 0 0 1 5.12-1.83c1.31-.39 2.8-.33 4.01-.89a57.76 57.76 0 0 0 7-3.83 49.6 49.6 0 0 0 10.31-8.52c1.43-1.6 3-3.13 3.41-5.37.23-1.28.42-2.57.52-3.86.2-2.51.92-4.76 2.85-6.5.63-.56.49-1.2.1-1.87-.3-.5-.8-1.18-.66-1.61.83-2.64-.4-5.08-.55-7.6-.2-3.3 1.37-6.07 5.13-5.82 1.35.08 2.85.12 3.98.73 2.04 1.1 2.89 4.29 2.05 6.6-.64 1.75-1.09 3.46-.69 5.36.15.74-.25 1.58-.27 2.38-.01.72-.1 1.7.3 2.13 2.27 2.32 2.67 5.37 2.82 8.24.14 2.7 1.25 4.64 2.88 6.46a57.23 57.23 0 0 0 13.14 10.6c2.2 1.33 4.38 2.57 6.95 3.06 5.3 1 10.22 3 14.65 6.1a15.33 15.33 0 0 1 5.51 6.36c1.52 3.48 1.82 6.9-.21 10.48-2.52 4.43-6.3 7.36-10.5 9.9-1.27.76-2.67 1.29-4.15 2zm-51.5 6.07c7.56-.1 15.39-.27 23.22-.23 4.2.02 8.43.27 12.62.7 4.07.42 8.1 1.2 12.14 1.83 2.64.42 5.3.76 7.9 1.3 1.98.4 3.9 1.06 5.83 1.63 1.4.4 2.8.78 4.16 1.3 2.68 1 5.4 1.93 7.95 3.2a45.44 45.44 0 0 1 7.13 4.33c3.03 2.28 4.64 5.45 3.6 9.28a10.9 10.9 0 0 1-2.8 4.45 25.96 25.96 0 0 1-9.16 5.82c-1.8.7-1.83.78-2.57-.97-1.55-3.69-4.5-5.91-7.84-7.82a42.83 42.83 0 0 0-9.3-3.77 58.4 58.4 0 0 0-6.39-1.4c-3.79-.66-7.58-1.3-11.4-1.8-2-.26-4.04-.25-6.07-.3-5.6-.17-11.2-.45-16.8-.42-5.3.04-10.62.33-15.92.68-2.82.18-5.65.57-8.42 1.14-4.24.86-8.52 1.67-12.61 3.03-4.57 1.52-9.06 3.47-12.2 7.4a17.87 17.87 0 0 0-2.16 3.9c-.54 1.2-.7 1.28-1.85.65-1.7-.93-3.49-1.7-5.19-2.63a17.21 17.21 0 0 1-6.28-5.48c-2.05-3.1-2.1-6.36.45-9.54 2.4-3.01 5.54-4.95 8.95-6.54 2.09-.97 4.18-1.94 6.33-2.76 1.57-.6 3.24-.98 4.87-1.44l5.83-1.64c.31-.08.61-.23.93-.28 2.91-.5 5.82-1.03 8.74-1.46 2.64-.4 5.3-.68 7.96-1.03 2.68-.35 5.36-.72 8.36-1.13z"/><path id="c" d="M177.55 779.38c.12 2.9.19 5.75.19 8.52 0 32.07-14.82 48.1-44.45 48.1-10.85 0-23.96-2.08-39.34-6.25l5.86-14.01c14.12 2.27 24.46 3.4 31.02 3.4 8.83 0 15.32-1.7 19.48-5.1 4.67-3.8 7-10.1 7-18.94h-48.23c-3.53 0-6.94-1.08-10.21-3.23-3.91-2.67-5.87-6.15-5.87-10.46v-29.48h63.74v-7.58l18.73-1.9v23.11H113.8v13.82zm104.6-27.45v67.6c-15.27 9.84-29.32 14.77-42.19 14.77-15.5 0-30.32-4.55-44.44-13.64v-57.75l-8.58-1.14c-2.86-1.13-4.29-3.53-4.29-7.2v-3.4l33.67-.19v59.84a634.5 634.5 0 0 0 9.23 4.73c5.02 2.27 9.8 3.4 14.32 3.4 7.28 0 14.56-2.77 21.84-8.32v-58.7zm97.78 29.16c.12 4.29-1.57 7.83-5.1 10.6a15.45 15.45 0 0 1-9.8 3.6H310.7v32.19h-20.8v-75.55h90.03zm-20.8-1.52v-13.82H310.7v13.82zm111.58 1.33c0 4.42-1.76 8.02-5.28 10.8a15.72 15.72 0 0 1-9.62 3.4h-48.27v18.56h61.66l-4.16 13.82h-63.36c-3.4 0-6.62-1.17-9.65-3.5a12.15 12.15 0 0 1-5.3-10.32v-61.73h63.74v-7.58l18.73-1.9v23.11h-61.66v13.82h63.17zm96.27 45.25c-7.13 1.14-13.7 1.7-19.7 1.7-27.51 0-41.08-10.85-40.7-32.56h-8.82v32.57h-20.8v-75.93h90.02v29.16c.13 4.29-1.58 7.83-5.1 10.6-3.03 2.4-6.31 3.6-9.84 3.6h-24.78c0 12.5 8.25 18.74 24.73 18.74 3.38 0 8-.3 13.87-.94zm-20.8-46.58v-13.82h-48.42v13.82zm175.33-37.11v23.1H685.2v61.92h-20.81v-61.92h-32.15l-.76-13.63h71.3v-7.58zM814 830.7l-75.1-.38c-3.4 0-6.61-1.2-9.64-3.6-3.53-2.77-5.3-6.31-5.3-10.6v-32.38h69.23c0-12.5-8.39-18.75-25.15-18.75-7.2 0-18.04 1.14-32.54 3.41l-6.05-14.01c14.12-3.91 26.92-5.87 38.4-5.87 14.5 0 25.82 3.06 33.95 9.18 8.13 6.13 12.2 14.8 12.2 26.04zm-20.8-16.1v-17.04h-48.43v17.04zm114.8-.75c0 4.3-1.77 7.73-5.3 10.31-3.02 2.34-6.24 3.5-9.64 3.5H836.5c-3.4 0-6.62-1.16-9.64-3.5a12.15 12.15 0 0 1-5.3-10.31v-62.68h33.86v-6.82l18.72-1.9v8.72H908zm-20.8 0v-48.86h-44.83v48.86z"/><linearGradient id="b" x1="500.62" x2="499.63" y1="718.98" y2="453" gradientUnits="userSpaceOnUse"><stop offset="0" stop-color="#f4b900"/><stop offset="1" stop-color="#ffe100"/></linearGradient></defs><g transform="translate(-92 -451)"><use fill="#333" xlink:href="#a"/><use fill="url(#b)" xlink:href="#a"/></g><g transform="translate(-92 -451)"><use fill="white" xlink:href="#c"/></g></svg>